<svg id="svg" class="path" style="background-color: rgb(255, 245, 240);"><path fill="#ffede3" stroke="#ffede3" d="M -90 592 L -90 0 C -56.666666666666664 0, -23.333333333333336 -20, 10 -20 C 43.333333333333336 -20, 76.66666666666666 20, 110 20 C 143.33333333333334 20, 176.66666666666666 -20, 210 -20 C 243.33333333333334 -20, 276.6666666666667 20, 310 20 C 343.3333333333333 20, 376.6666666666667 -20, 410 -20 C 443.3333333333333 -20, 476.6666666666667 20, 510 20 C 543.3333333333334 20, 576.6666666666666 -20, 610 -20 C 643.3333333333334 -20, 676.6666666666666 20, 710 20 C 743.3333333333334 20, 776.6666666666666 -20, 810 -20 C 843.3333333333334 -20, 876.6666666666666 20, 910 20 C 943.3333333333334 20, 976.6666666666666 -20, 1010 -20 C 1043.3333333333333 -20, 1076.6666666666667 20, 1110 20 C 1143.3333333333333 20, 1176.6666666666667 -20, 1210 -20 C 1243.3333333333333 -20, 1276.6666666666667 20, 1310 20 C 1343.3333333333333 20, 1376.6666666666667 -20, 1410 -20 C 1443.3333333333333 -20, 1476.6666666666667 20, 1510 20 C 1543.3333333333333 20, 1576.6666666666667 -20, 1610 -20 C 1643.3333333333333 -20, 1676.6666666666667 20, 1710 20 L 1770 0 L 1770 592 Z"></path><path fill="#ffe5d6" stroke="#ffe5d6" d="M -90 592 L -80 55 C -46.666666666666664 55, -13.333333333333336 35, 20 35 C 53.333333333333336 35, 86.66666666666666 75, 120 75 C 153.33333333333334 75, 186.66666666666666 35, 220 35 C 253.33333333333334 35, 286.6666666666667 75, 320 75 C 353.3333333333333 75, 386.6666666666667 35, 420 35 C 453.3333333333333 35, 486.6666666666667 75, 520 75 C 553.3333333333334 75, 586.6666666666666 35, 620 35 C 653.3333333333334 35, 686.6666666666666 75, 720 75 C 753.3333333333334 75, 786.6666666666666 35, 820 35 C 853.3333333333334 35, 886.6666666666666 75, 920 75 C 953.3333333333334 75, 986.6666666666666 35, 1020 35 C 1053.3333333333333 35, 1086.6666666666667 75, 1120 75 C 1153.3333333333333 75, 1186.6666666666667 35, 1220 35 C 1253.3333333333333 35, 1286.6666666666667 75, 1320 75 C 1353.3333333333333 75, 1386.6666666666667 35, 1420 35 C 1453.3333333333333 35, 1486.6666666666667 75, 1520 75 C 1553.3333333333333 75, 1586.6666666666667 35, 1620 35 C 1653.3333333333333 35, 1686.6666666666667 75, 1720 75 L 1770 55 L 1770 592 Z"></path><path fill="#ffdcca" stroke="#ffdcca" d="M -90 592 L -70 111 C -36.666666666666664 111, -3.3333333333333357 91, 30 91 C 63.333333333333336 91, 96.66666666666666 131, 130 131 C 163.33333333333334 131, 196.66666666666666 91, 230 91 C 263.3333333333333 91, 296.6666666666667 131, 330 131 C 363.3333333333333 131, 396.6666666666667 91, 430 91 C 463.3333333333333 91, 496.6666666666667 131, 530 131 C 563.3333333333334 131, 596.6666666666666 91, 630 91 C 663.3333333333334 91, 696.6666666666666 131, 730 131 C 763.3333333333334 131, 796.6666666666666 91, 830 91 C 863.3333333333334 91, 896.6666666666666 131, 930 131 C 963.3333333333334 131, 996.6666666666666 91, 1030 91 C 1063.3333333333333 91, 1096.6666666666667 131, 1130 131 C 1163.3333333333333 131, 1196.6666666666667 91, 1230 91 C 1263.3333333333333 91, 1296.6666666666667 131, 1330 131 C 1363.3333333333333 131, 1396.6666666666667 91, 1430 91 C 1463.3333333333333 91, 1496.6666666666667 131, 1530 131 C 1563.3333333333333 131, 1596.6666666666667 91, 1630 91 C 1663.3333333333333 91, 1696.6666666666667 131, 1730 131 L 1770 111 L 1770 592 Z"></path><path fill="#ffd4be" stroke="#ffd4be" d="M -90 592 L -60 167 C -26.666666666666664 167, 6.666666666666664 147, 40 147 C 73.33333333333334 147, 106.66666666666666 187, 140 187 C 173.33333333333334 187, 206.66666666666666 147, 240 147 C 273.3333333333333 147, 306.6666666666667 187, 340 187 C 373.3333333333333 187, 406.6666666666667 147, 440 147 C 473.3333333333333 147, 506.6666666666667 187, 540 187 C 573.3333333333334 187, 606.6666666666666 147, 640 147 C 673.3333333333334 147, 706.6666666666666 187, 740 187 C 773.3333333333334 187, 806.6666666666666 147, 840 147 C 873.3333333333334 147, 906.6666666666666 187, 940 187 C 973.3333333333334 187, 1006.6666666666666 147, 1040 147 C 1073.3333333333333 147, 1106.6666666666667 187, 1140 187 C 1173.3333333333333 187, 1206.6666666666667 147, 1240 147 C 1273.3333333333333 147, 1306.6666666666667 187, 1340 187 C 1373.3333333333333 187, 1406.6666666666667 147, 1440 147 C 1473.3333333333333 147, 1506.6666666666667 187, 1540 187 C 1573.3333333333333 187, 1606.6666666666667 147, 1640 147 C 1673.3333333333333 147, 1706.6666666666667 187, 1740 187 L 1770 167 L 1770 592 Z"></path><path fill="#ffccb1" stroke="#ffccb1" d="M -90 592 L -50 223 C -16.666666666666664 223, 16.666666666666664 203, 50 203 C 83.33333333333334 203, 116.66666666666666 243, 150 243 C 183.33333333333334 243, 216.66666666666666 203, 250 203 C 283.3333333333333 203, 316.6666666666667 243, 350 243 C 383.3333333333333 243, 416.6666666666667 203, 450 203 C 483.3333333333333 203, 516.6666666666666 243, 550 243 C 583.3333333333334 243, 616.6666666666666 203, 650 203 C 683.3333333333334 203, 716.6666666666666 243, 750 243 C 783.3333333333334 243, 816.6666666666666 203, 850 203 C 883.3333333333334 203, 916.6666666666666 243, 950 243 C 983.3333333333334 243, 1016.6666666666666 203, 1050 203 C 1083.3333333333333 203, 1116.6666666666667 243, 1150 243 C 1183.3333333333333 243, 1216.6666666666667 203, 1250 203 C 1283.3333333333333 203, 1316.6666666666667 243, 1350 243 C 1383.3333333333333 243, 1416.6666666666667 203, 1450 203 C 1483.3333333333333 203, 1516.6666666666667 243, 1550 243 C 1583.3333333333333 243, 1616.6666666666667 203, 1650 203 C 1683.3333333333333 203, 1716.6666666666667 243, 1750 243 L 1770 223 L 1770 592 Z"></path><path fill="#ffc4a5" stroke="#ffc4a5" d="M -90 592 L -40 278 C -6.666666666666664 278, 26.666666666666664 258, 60 258 C 93.33333333333334 258, 126.66666666666666 298, 160 298 C 193.33333333333334 298, 226.66666666666666 258, 260 258 C 293.3333333333333 258, 326.6666666666667 298, 360 298 C 393.3333333333333 298, 426.6666666666667 258, 460 258 C 493.3333333333333 258, 526.6666666666666 298, 560 298 C 593.3333333333334 298, 626.6666666666666 258, 660 258 C 693.3333333333334 258, 726.6666666666666 298, 760 298 C 793.3333333333334 298, 826.6666666666666 258, 860 258 C 893.3333333333334 258, 926.6666666666666 298, 960 298 C 993.3333333333334 298, 1026.6666666666667 258, 1060 258 C 1093.3333333333333 258, 1126.6666666666667 298, 1160 298 C 1193.3333333333333 298, 1226.6666666666667 258, 1260 258 C 1293.3333333333333 258, 1326.6666666666667 298, 1360 298 C 1393.3333333333333 298, 1426.6666666666667 258, 1460 258 C 1493.3333333333333 258, 1526.6666666666667 298, 1560 298 C 1593.3333333333333 298, 1626.6666666666667 258, 1660 258 C 1693.3333333333333 258, 1726.6666666666667 298, 1760 298 L 1770 278 L 1770 592 Z"></path><path fill="#ffbb9a" stroke="#ffbb9a" d="M -90 592 L -30 334 C 3.3333333333333357 334, 36.666666666666664 314, 70 314 C 103.33333333333334 314, 136.66666666666666 354, 170 354 C 203.33333333333334 354, 236.66666666666666 314, 270 314 C 303.3333333333333 314, 336.6666666666667 354, 370 354 C 403.3333333333333 354, 436.6666666666667 314, 470 314 C 503.3333333333333 314, 536.6666666666666 354, 570 354 C 603.3333333333334 354, 636.6666666666666 314, 670 314 C 703.3333333333334 314, 736.6666666666666 354, 770 354 C 803.3333333333334 354, 836.6666666666666 314, 870 314 C 903.3333333333334 314, 936.6666666666666 354, 970 354 C 1003.3333333333334 354, 1036.6666666666667 314, 1070 314 C 1103.3333333333333 314, 1136.6666666666667 354, 1170 354 C 1203.3333333333333 354, 1236.6666666666667 314, 1270 314 C 1303.3333333333333 314, 1336.6666666666667 354, 1370 354 C 1403.3333333333333 354, 1436.6666666666667 314, 1470 314 C 1503.3333333333333 314, 1536.6666666666667 354, 1570 354 C 1603.3333333333333 354, 1636.6666666666667 314, 1670 314 C 1703.3333333333333 314, 1736.6666666666667 354, 1770 354 L 1770 334 L 1770 592 Z"></path><path fill="#ffb38e" stroke="#ffb38e" d="M -90 592 L -20 390 C 13.333333333333336 390, 46.666666666666664 370, 80 370 C 113.33333333333334 370, 146.66666666666666 410, 180 410 C 213.33333333333334 410, 246.66666666666666 370, 280 370 C 313.3333333333333 370, 346.6666666666667 410, 380 410 C 413.3333333333333 410, 446.6666666666667 370, 480 370 C 513.3333333333334 370, 546.6666666666666 410, 580 410 C 613.3333333333334 410, 646.6666666666666 370, 680 370 C 713.3333333333334 370, 746.6666666666666 410, 780 410 C 813.3333333333334 410, 846.6666666666666 370, 880 370 C 913.3333333333334 370, 946.6666666666666 410, 980 410 C 1013.3333333333334 410, 1046.6666666666667 370, 1080 370 C 1113.3333333333333 370, 1146.6666666666667 410, 1180 410 C 1213.3333333333333 410, 1246.6666666666667 370, 1280 370 C 1313.3333333333333 370, 1346.6666666666667 410, 1380 410 C 1413.3333333333333 410, 1446.6666666666667 370, 1480 370 C 1513.3333333333333 370, 1546.6666666666667 410, 1580 410 C 1613.3333333333333 410, 1646.6666666666667 370, 1680 370 L 1770 390 L 1770 592 Z"></path><path fill="#feaa82" stroke="#feaa82" d="M -90 592 L -10 446 C 23.333333333333336 446, 56.666666666666664 426, 90 426 C 123.33333333333334 426, 156.66666666666666 466, 190 466 C 223.33333333333334 466, 256.6666666666667 426, 290 426 C 323.3333333333333 426, 356.6666666666667 466, 390 466 C 423.3333333333333 466, 456.6666666666667 426, 490 426 C 523.3333333333334 426, 556.6666666666666 466, 590 466 C 623.3333333333334 466, 656.6666666666666 426, 690 426 C 723.3333333333334 426, 756.6666666666666 466, 790 466 C 823.3333333333334 466, 856.6666666666666 426, 890 426 C 923.3333333333334 426, 956.6666666666666 466, 990 466 C 1023.3333333333334 466, 1056.6666666666667 426, 1090 426 C 1123.3333333333333 426, 1156.6666666666667 466, 1190 466 C 1223.3333333333333 466, 1256.6666666666667 426, 1290 426 C 1323.3333333333333 426, 1356.6666666666667 466, 1390 466 C 1423.3333333333333 466, 1456.6666666666667 426, 1490 426 C 1523.3333333333333 426, 1556.6666666666667 466, 1590 466 C 1623.3333333333333 466, 1656.6666666666667 426, 1690 426 L 1770 446 L 1770 592 Z"></path><path fill="#fda277" stroke="#fda277" d="M -90 592 L 0 502 C 33.333333333333336 502, 66.66666666666666 482, 100 482 C 133.33333333333334 482, 166.66666666666666 522, 200 522 C 233.33333333333334 522, 266.6666666666667 482, 300 482 C 333.3333333333333 482, 366.6666666666667 522, 400 522 C 433.3333333333333 522, 466.6666666666667 482, 500 482 C 533.3333333333334 482, 566.6666666666666 522, 600 522 C 633.3333333333334 522, 666.6666666666666 482, 700 482 C 733.3333333333334 482, 766.6666666666666 522, 800 522 C 833.3333333333334 522, 866.6666666666666 482, 900 482 C 933.3333333333334 482, 966.6666666666666 522, 1000 522 C 1033.3333333333333 522, 1066.6666666666667 482, 1100 482 C 1133.3333333333333 482, 1166.6666666666667 522, 1200 522 C 1233.3333333333333 522, 1266.6666666666667 482, 1300 482 C 1333.3333333333333 482, 1366.6666666666667 522, 1400 522 C 1433.3333333333333 522, 1466.6666666666667 482, 1500 482 C 1533.3333333333333 482, 1566.6666666666667 522, 1600 522 C 1633.3333333333333 522, 1666.6666666666667 482, 1700 482 L 1770 502 L 1770 592 Z"></path></svg>
